<?xml version="1.0" encoding="utf-8"?>
<!-- Generator: Adobe Illustrator 13.0.0, SVG Export Plug-In . SVG Version: 6.00 Build 14948)  -->
<!DOCTYPE svg PUBLIC "-//W3C//DTD SVG 1.1//EN" "http://www.w3.org/Graphics/SVG/1.1/DTD/svg11.dtd">
<svg version="1.1" id="Layer_1" xmlns="http://www.w3.org/2000/svg" xmlns:xlink="http://www.w3.org/1999/xlink" x="0px" y="0px"
	 width="112.754px" height="13.381px" viewBox="0 0 112.754 13.381" enable-background="new 0 0 112.754 13.381"
	 xml:space="preserve">
<g>
	<g>
		<path fill="#3FB76C" d="M0,13.188h3.12v-5.36h6.32v-2.22H3.12v-3.18h6.98v-2.22H0V13.188z M71.45,0.818
			c-0.793-0.406-2.109-0.61-3.949-0.61h-5.2v12.98h3.12V8.968h1.72c1.961,0,3.366-0.232,4.221-0.699
			c0.854-0.467,1.279-1.34,1.279-2.621v-2.46C72.641,2.016,72.243,1.226,71.45,0.818z M69.62,5.548c0,0.467-0.166,0.797-0.5,0.991
			c-0.333,0.193-0.906,0.289-1.72,0.289h-1.98V2.429h1.939c0.867,0,1.461,0.07,1.779,0.21c0.319,0.14,0.479,0.417,0.479,0.83v2.079
			H69.62z"/>
	</g>
</g>
<g>
	<g>
		<path fill="#FFFFFF" d="M15.354,0.201h-3.12v12.979h9.5V10.96h-6.38V0.201z M35.754,1.021c-0.427-0.267-0.939-0.483-1.54-0.649
			c-0.6-0.167-1.137-0.271-1.61-0.311C32.13,0.021,31.627,0,31.094,0c-0.52,0-1.013,0.021-1.48,0.061c-0.467,0.04-1,0.144-1.6,0.311
			c-0.6,0.166-1.11,0.383-1.53,0.649s-0.78,0.653-1.08,1.16c-0.3,0.507-0.45,1.093-0.45,1.76v5.681c0,0.787,0.203,1.445,0.61,1.979
			c0.407,0.535,0.953,0.92,1.64,1.16c0.687,0.239,1.333,0.403,1.94,0.489c0.606,0.088,1.256,0.131,1.95,0.131
			c0.733,0,1.427-0.054,2.08-0.159c0.653-0.107,1.307-0.291,1.96-0.551c0.653-0.261,1.173-0.65,1.56-1.171
			c0.387-0.521,0.58-1.146,0.58-1.879V3.94c0-0.68-0.146-1.27-0.439-1.77S36.18,1.287,35.754,1.021z M34.154,9.621
			c0,0.333-0.083,0.608-0.25,0.83c-0.167,0.22-0.41,0.377-0.73,0.47c-0.32,0.094-0.63,0.157-0.93,0.189
			c-0.3,0.033-0.67,0.05-1.11,0.05c-0.44,0-0.81-0.017-1.11-0.05c-0.3-0.032-0.613-0.098-0.94-0.189
			c-0.327-0.093-0.577-0.25-0.75-0.47c-0.173-0.222-0.26-0.497-0.26-0.83v-5.7c0-0.64,0.253-1.083,0.76-1.33
			c0.507-0.247,1.267-0.37,2.28-0.37c1,0,1.757,0.127,2.27,0.38c0.513,0.253,0.77,0.693,0.77,1.32V9.621z M53.895,9.681
			l-2.721-9.479h-2.9l-2.52,9.479l-2.52-9.479h-3.24l4.02,12.979h3.08l2.561-9.419l2.479,9.419h3.08l4.16-12.979h-3.16L53.895,9.681
			z M78.555,0.201h-3.121v12.979h9.5V10.96h-6.379V0.201z M91.874,0.201l-4.799,12.979h3.079l1.14-3.42h4.74l1.159,3.42h3.16
			l-4.68-12.979H91.874z M91.995,7.681l1.639-4.879h0.08l1.642,4.879H91.995z M109.193,0.201l-2.719,5.08l-2.74-5.08h-3.541
			l4.701,7.778v5.201h3.119V7.94l4.74-7.739H109.193z"/>
	</g>
</g>
</svg>
