<svg width="16" xmlns="http://www.w3.org/2000/svg" height="11" viewBox="0 0 16 11" xmlns:xlink="http://www.w3.org/1999/xlink" enable-background="new 0 0 16 11">
<defs/>
<path fill="none" d="M11.501,7.008c1.376,0,2.49-1.122,2.49-2.504S12.875,2,11.5,2S9.012,3.121,9.012,4.504   S10.126,7.008,11.501,7.008z M16,11c0,0-0.027-3.004-3.971-3.001C11.979,8.005,11.144,8.024,10,7.999C11.08,8.436,11,11,11,11H16z    M5.002,6.006c1.654,0,2.995-1.344,2.995-3.003S6.656,0,5.002,0C3.347,0,2.006,1.344,2.006,3.003S3.347,6.006,5.002,6.006z M5,7   c-5.035-0.002-5,4-5,4h10C10,11,9.969,6.975,5,7z"/>
</svg>
