<?xml version="1.0" encoding="utf-8"?>
<!-- Generator: Adobe Illustrator 13.0.0, SVG Export Plug-In . SVG Version: 6.00 Build 14948)  -->
<!DOCTYPE svg PUBLIC "-//W3C//DTD SVG 1.1//EN" "http://www.w3.org/Graphics/SVG/1.1/DTD/svg11.dtd">
<svg version="1.1" id="Layer_1" xmlns="http://www.w3.org/2000/svg" xmlns:xlink="http://www.w3.org/1999/xlink" x="0px" y="0px"
	 width="16px" height="11px" viewBox="0 0 16 11" enable-background="new 0 0 16 11" xml:space="preserve">
<path fill="#FFFFFF" d="M11.501,7.008c1.376,0,2.49-1.122,2.49-2.504C13.991,3.122,12.875,2,11.5,2S9.012,3.121,9.012,4.504
	C9.012,5.887,10.126,7.008,11.501,7.008z M16,11c0,0-0.027-3.004-3.971-3.001c-0.051,0.006-0.885,0.024-2.029,0
	C11.08,8.436,11,11,11,11H16z M5.002,6.006c1.654,0,2.995-1.344,2.995-3.003C7.997,1.344,6.656,0,5.002,0
	C3.347,0,2.006,1.344,2.006,3.003C2.006,4.662,3.347,6.006,5.002,6.006z M5,7c-5.035-0.002-5,4-5,4h10C10,11,9.969,6.975,5,7z"/>
</svg>
