<svg width="10.522" xmlns="http://www.w3.org/2000/svg" height="12" viewBox="0 0 10.522 12" xmlns:xlink="http://www.w3.org/1999/xlink" enable-background="new 0 0 10.522 12">
<defs/>
<path fill="#3fb76c" d="m10.053,8h-.176l-1.175-1.73-.626-3.27h-.006c-.189-1-1.068-1.967-2.2-2.23 .002-.006 .182-.373 .182-.373 .082-.261-.064-.397-.322-.397h-.937c-.259,0-.401,.193-.32,.453 0,0 .178,.316 .18,.322-1.13,.264-2.009,1.225-2.201,2.226h-.006l-.626,3.269-1.174,1.73h-.176c-.258,0-.47,.225-.47,.497 0,.275 .196,.582 .438,.68 0,0 2.007,.818 4.823,.818 2.814,0 4.823-.82 4.823-.82 .239-.098 .438-.4 .438-.678 0-.274-.212-.497-.469-.497zm-4.792,2.959c.357,0 .7-.02 1.022-.061-.154,.644-.553,1.102-1.022,1.102-.472,0-.869-.459-1.025-1.104 .325,.04 .665,.063 1.025,.063z"/>
</svg>
