<svg width="79.999" xmlns="http://www.w3.org/2000/svg" height="79.999" viewBox="0 0 79.999 79.999" xmlns:xlink="http://www.w3.org/1999/xlink" enable-background="new 0 0 79.999 79.999">
<path fill="#ededed" fill-rule="evenodd" d="m75.999,79.999h-71.999c-2.209,0-4-1.791-4-4v-71.999c0-2.21 1.791-4 4-4h71.999c2.21,0 4,1.79 4,4v72c0,2.208-1.79,3.999-4,3.999zm-35.931-67.005c-8.074,0-15.069,6.632-15.069,14.934 0,8.301 6.721,15.07 15.012,15.07 8.29,0 15.01-6.756 15.01-15.09 0-8.335-6.877-14.914-14.953-14.914zm26.945,53.003c0-9.462-12.125-19.954-27-19.954s-27,10.492-27,19.954c0,.923 0,1 0,1h54c0,0 0-.077 0-1z"/>
</svg>
