<svg width="80" xmlns="http://www.w3.org/2000/svg" height="80" viewBox="0 0 80 80" xmlns:xlink="http://www.w3.org/1999/xlink" enable-background="new 0 0 80 80">
<defs/>
<path fill="#ededed" fill-rule="evenodd" d="m40,26.989c-7.186,0-13.011,5.825-13.011,13.011 0,7.186 5.825,13.01 13.011,13.01 7.186,0 13.01-5.824 13.01-13.01 0-7.186-5.824-13.011-13.01-13.011zm0,19.011c-3.314,0-6-2.688-6-6 0-3.314 2.686-6 6-6 3.313,0 6,2.686 6,6 0,3.313-2.687,6-6,6zm0-46c-22.092,0-40,17.908-40,40 0,22.092 17.908,40 40,40 22.092,0 40-17.908 40-40 0-22.092-17.908-40-40-40zm0,55.989c-8.83,0-15.989-7.158-15.989-15.989 0-8.831 7.159-15.989 15.989-15.989 8.831,0 15.989,7.158 15.989,15.989-0,8.831-7.158,15.989-15.989,15.989z"/>
</svg>
