<svg width="11.786" xmlns="http://www.w3.org/2000/svg" height="12.019" viewBox="0 0 11.786 12.019" xmlns:xlink="http://www.w3.org/1999/xlink" enable-background="new 0 0 11.786 12.019">
<defs/>
<path fill="#555" d="m6.915,4.595c0,.281-.231,.511-.511,.511h-1.022c-.281,0-.51-.229-.51-.511v-4.085c0-.281 .229-.51 .51-.51h1.021c.28,0 .511,.229 .511,.51v4.085zm1.02-3.991v1.692c1.375,.735 2.32,2.167 2.32,3.83 0,2.405-1.957,4.361-4.362,4.361-2.405,0-4.361-1.956-4.361-4.361 0-1.663 .946-3.095 2.319-3.83v-1.692c-2.246,.832-3.85,2.987-3.85,5.522 0,3.256 2.638,5.893 5.893,5.893 3.254,0 5.893-2.639 5.893-5.893 0-2.535-1.606-4.69-3.852-5.522z"/>
</svg>
