<svg width="24.948" xmlns="http://www.w3.org/2000/svg" height="24.948" viewBox="0 0 24.948 24.948" xmlns:xlink="http://www.w3.org/1999/xlink" enable-background="new 0 0 24.948 24.948">
<defs/>
<path fill="#85cebf" fill-rule="evenodd" d="m12.475,0c-6.89,0-12.475,5.585-12.475,12.474s5.585,12.475 12.475,12.475c6.889,0 12.474-5.586 12.474-12.475s-5.586-12.474-12.474-12.474zm1.955,17.063c-.941,1.413-1.898,2.503-3.51,2.503-1.1-.18-1.552-.968-1.313-1.771l2.072-6.865c.05-.168-.034-.348-.188-.401-.152-.054-.453,.146-.712,.429l-1.253,1.508c-.033-.253-.004-.672-.004-.84 .942-1.414 2.488-2.529 3.537-2.529 .998,.103 1.469,.899 1.295,1.775l-2.087,6.898c-.028,.156 .054,.313 .196,.363 .152,.054 .476-.145 .734-.429l1.253-1.507c.036,.253-.02,.698-.02,.866zm-.279-8.966c-.793,0-1.436-.576-1.436-1.428 0-.85 .643-1.427 1.436-1.427 .792,0 1.435,.577 1.435,1.427 0,.852-.643,1.428-1.435,1.428z"/>
</svg>
