<svg width="25.106" xmlns="http://www.w3.org/2000/svg" height="25.106" viewBox="0 0 25.106 25.106" xmlns:xlink="http://www.w3.org/1999/xlink" enable-background="new 0 0 25.106 25.106">
<path fill="#dac449" fill-rule="evenodd" d="m12.553,0c-6.933,0-12.553,5.62-12.553,12.554 0,6.933 5.62,12.553 12.553,12.553s12.554-5.62 12.554-12.553c-.001-6.934-5.622-12.554-12.554-12.554zm0,19.675c-.8,0-1.448-.648-1.448-1.448 0-.801 .648-1.448 1.448-1.448s1.448,.647 1.448,1.448c0,.799-.648,1.448-1.448,1.448zm1.448-6.277c0,.8-.648,1.448-1.448,1.448s-1.448-.648-1.448-1.448v-6.76c0-.8 .648-1.448 1.448-1.448s1.448,.648 1.448,1.448v6.76z"/>
</svg>
