<svg width="16.999" xmlns="http://www.w3.org/2000/svg" height="16.999" viewBox="0 0 16.999 16.999" xmlns:xlink="http://www.w3.org/1999/xlink" enable-background="new 0 0 16.999 16.999">
<defs/>
<path fill="#3fb76c" d="m16.894,14.834l-4.254-4.252c.691-1.075 1.1-2.347 1.1-3.712 0-3.79-3.084-6.87-6.871-6.87s-6.869,3.08-6.869,6.87c0,3.788 3.081,6.867 6.868,6.867 1.366,0 2.641-.405 3.713-1.097l4.251,4.252c.142,.142 .374,.142 .516,0l1.543-1.543c.143-.141 .143-.374 .003-.515zm-14.709-7.965c-0-2.586 2.104-4.689 4.687-4.689 2.584,0 4.688,2.102 4.688,4.689 0,2.583-2.102,4.686-4.688,4.686-2.584,0-4.687-2.102-4.687-4.686z"/>
</svg>
