<?xml version="1.0" encoding="utf-8"?>
<!-- Generator: Adobe Illustrator 13.0.0, SVG Export Plug-In . SVG Version: 6.00 Build 14948)  -->
<!DOCTYPE svg PUBLIC "-//W3C//DTD SVG 1.1//EN" "http://www.w3.org/Graphics/SVG/1.1/DTD/svg11.dtd">
<svg version="1.1" id="Layer_1" xmlns="http://www.w3.org/2000/svg" xmlns:xlink="http://www.w3.org/1999/xlink" x="0px" y="0px"
	 width="20px" height="20px" viewBox="0 0 20 20" enable-background="new 0 0 20 20" xml:space="preserve">
<path fill="#FFFFFF" d="M10,0C4.478,0,0,4.478,0,10c0,5.523,4.478,10,10,10c5.524,0,10-4.478,10-10C20,4.478,15.524,0,10,0z
	 M11.569,13.68c-0.756,1.133-1.524,2.007-2.815,2.007c-0.882-0.144-1.244-0.776-1.053-1.419l1.662-5.504
	c0.04-0.135-0.027-0.279-0.15-0.322S8.85,8.558,8.643,8.785L7.638,9.994C7.61,9.791,7.635,9.455,7.635,9.32
	C8.39,8.188,9.629,7.294,10.47,7.294c0.801,0.082,1.178,0.72,1.038,1.422l-1.673,5.531c-0.022,0.125,0.044,0.252,0.157,0.291
	c0.123,0.043,0.381-0.115,0.59-0.345l1.004-1.207C11.614,13.188,11.569,13.543,11.569,13.68z M11.345,6.492
	c-0.636,0-1.151-0.463-1.151-1.145c0-0.683,0.516-1.145,1.151-1.145c0.635,0,1.149,0.462,1.149,1.145
	C12.495,6.029,11.979,6.492,11.345,6.492z"/>
</svg>
