<svg width="30" xmlns="http://www.w3.org/2000/svg" height="29.999" viewBox="0 0 30 29.999" xmlns:xlink="http://www.w3.org/1999/xlink" enable-background="new 0 0 30 29.999">
<path fill="#555" fill-rule="evenodd" d="m15,0c-8.284,0-15,6.716-15,15s6.716,14.999 15,14.999c8.284,0 15-6.715 15-14.999s-6.716-15-15-15zm0,20.996c-3.312,0-5.996-2.685-5.996-5.996s2.684-5.996 5.996-5.996c3.311,0 5.997,2.685 5.997,5.996s-2.686,5.996-5.997,5.996zm0-11.001c-2.764,0-5.004,2.241-5.004,5.005 0,2.765 2.24,5.005 5.004,5.005 2.764,0 5.004-2.24 5.004-5.005 0-2.764-2.24-5.005-5.004-5.005zm0,7.005c-1.104,0-2-.896-2-2s.896-2 2-2c1.104,0 2,.896 2,2s-.896,2-2,2z"/>
</svg>
