<svg width="20.001" xmlns="http://www.w3.org/2000/svg" height="20.001" viewBox="0 0 20.001 20.001" xmlns:xlink="http://www.w3.org/1999/xlink" enable-background="new 0 0 20.001 20.001">
<path fill="none" d="m10,0c-5.522,0-10,4.478-10,10 0,5.523 4.478,10.001 10,10.001 5.524,0 10.001-4.478 10.001-10.001 0-5.522-4.477-10-10.001-10zm1.569,13.68c-.756,1.133-1.524,2.007-2.815,2.007-.882-.144-1.244-.776-1.053-1.419l1.662-5.504c.04-.135-.027-.279-.15-.322s-.363,.116-.57,.343l-1.005,1.209c-.028-.203-.003-.539-.003-.674 .755-1.132 1.994-2.026 2.835-2.026 .801,.082 1.178,.72 1.039,1.422l-1.674,5.53c-.022,.126 .044,.252 .157,.292 .123,.043 .381-.116 .59-.345l1.005-1.207c.027,.202-.018,.558-.018,.694zm-.224-7.188c-.636,0-1.151-.463-1.151-1.145 0-.683 .516-1.145 1.151-1.145 .635,0 1.15,.462 1.15,1.145 0,.682-.516,1.145-1.15,1.145z"/>
</svg>
