<svg width="30.001" xmlns="http://www.w3.org/2000/svg" height="29.999" viewBox="0 0 30.001 29.999" xmlns:xlink="http://www.w3.org/1999/xlink" enable-background="new 0 0 30.001 29.999">
<defs/>
<path fill="#555" fill-rule="evenodd" d="m16.993,29.999c-7.184,0-13.008-5.823-13.008-13.007s5.825-13.007 13.008-13.007 13.008,5.823 13.008,13.007-5.824,13.007-13.008,13.007zm.018-18.985c-3.313,0-5.997,2.685-5.997,5.995 0,3.312 2.685,5.995 5.997,5.995 3.311,0 5.994-2.684 5.994-5.995 0-3.311-2.684-5.995-5.994-5.995zm-.02,10.972c-2.758,0-4.994-2.236-4.994-4.996 0-2.758 2.236-4.994 4.994-4.994 2.76,0 4.996,2.236 4.996,4.994-0,2.76-2.236,4.996-4.996,4.996zm.02-6.976c-1.105,0-2.001,.895-2.001,1.999s.896,2 2.001,2c1.104,0 2-.896 2-2s-.897-1.999-2-1.999zm-12.011-10.01v3h-2v-3h-3v-2h3v-3h2v3h3v2h-3z"/>
</svg>
