<svg width="16.999" xmlns="http://www.w3.org/2000/svg" height="16.999" viewBox="0 0 16.999 16.999" xmlns:xlink="http://www.w3.org/1999/xlink" enable-background="new 0 0 16.999 16.999">
<path fill="#555" d="m16.894,14.834l-4.254-4.252c.691-1.074 1.1-2.346 1.1-3.712 0-3.789-3.084-6.87-6.871-6.87s-6.869,3.081-6.869,6.87c0,3.788 3.081,6.868 6.868,6.868 1.366,0 2.64-.406 3.713-1.098l4.251,4.252c.142,.142 .374,.142 .516,0l1.542-1.543c.144-.142 .144-.374 .004-.515zm-14.709-7.965c0-2.586 2.104-4.689 4.687-4.689 2.584,0 4.688,2.102 4.688,4.689 0,2.583-2.102,4.687-4.688,4.687-2.584,0-4.687-2.102-4.687-4.687z"/>
</svg>
