<svg width="87.294" xmlns="http://www.w3.org/2000/svg" height="168.79" viewBox="0 0 87.294 168.79" xmlns:xlink="http://www.w3.org/1999/xlink" enable-background="new 0 0 87.294 168.79">
<defs>
<linearGradient id="SVGID_1_" y1="0" y2="168.791" gradientUnits="userSpaceOnUse" x2="0">
<stop offset="0" stop-color="#66be5f"/>
<stop offset="1" stop-color="#1aaf98"/>
</linearGradient>
</defs>
<path fill="url(#SVGID_1_)" fill-rule="evenodd" d="m48.895,139.163v17.436c17.431,.939 30.908,6.711 30.908,12.088 0,.139-71.476,.139-71.476,0 0-5.18 12.479-10.768 28.977-12.012v-17.586c-21.061-3.016-37.304-20.949-37.304-42.844v-8.693h5.796v8.693c0,20.801 16.859,37.663 37.66,37.669h.02c20.8-.006 38.023-16.868 38.023-37.669v-8.693h5.795v8.693c0,22.145-16.986,40.219-38.399,42.918zm-5.434-11.406c-17.604,0-31.874-14.271-31.874-31.875v-8.33h64.112v8.33c0,17.603-14.634,31.875-32.238,31.875zm-31.874-95.883c0-17.603 14.27-31.874 31.874-31.874 17.604,0 32.238,14.271 32.238,31.874v49.883h-64.112v-49.883z"/>
</svg>
