<svg width="189.779" xmlns="http://www.w3.org/2000/svg" height="168.693" viewBox="0 0 189.779 168.693" xmlns:xlink="http://www.w3.org/1999/xlink" enable-background="new 0 0 189.779 168.693">
<defs>
<linearGradient id="SVGID_1_" y1="0" y2="168.693" gradientUnits="userSpaceOnUse" x2="0">
<stop offset="0" stop-color="#66be5f"/>
<stop offset="1" stop-color="#1aaf98"/>
</linearGradient>
</defs>
<path fill="url(#SVGID_1_)" fill-rule="evenodd" d="m154.634,168.693v-14.057h-.178c.068-1.17 .178-2.328 .178-3.516v-59.744-17.572c0-32.997-26.75-59.746-59.745-59.746-32.997,0-59.746,26.749-59.746,59.746v17.573 59.744c0,1.188 .109,2.346 .177,3.516h-.177v14.057c0,0-35.144-.586-35.144-38.658 0-21.594 11.299-31.115 21.086-35.324v-20.908c.001-40.761 33.044-73.804 73.805-73.804s73.803,33.043 73.803,73.804v20.906c9.785,4.209 21.086,13.73 21.086,35.324 0,38.073-35.145,38.659-35.145,38.659zm-105.432,0h-7.029v-77.317h7.029v77.317zm98.405,0h-7.029v-77.317h7.029v77.317z"/>
</svg>
