<svg width="25.021" xmlns="http://www.w3.org/2000/svg" height="25.021" viewBox="0 0 25.021 25.021" xmlns:xlink="http://www.w3.org/1999/xlink" enable-background="new 0 0 25.021 25.021">
<defs/>
<path fill="#92c26a" fill-rule="evenodd" d="m12.51,25.021c-6.908,0-12.51-5.601-12.51-12.51 0-6.91 5.602-12.511 12.51-12.511 6.91,0 12.511,5.601 12.511,12.511 0,6.909-5.601,12.51-12.511,12.51zm6.984-16.896l-1.245-1.244c-.229-.229-.601-.229-.829,0l-7.465,7.464-3.551-3.576c-.229-.229-.6-.229-.829,0l-1.245,1.244c-.229,.229-.229,.601 0,.83l3.949,3.977c.004,.006 .006,.014 .012,.02l.854,.854 .206,.207 .185,.184c.229,.229 .601,.229 .829,0l9.129-9.128c.229-.231 .229-.603 0-.832z"/>
</svg>
